<?xml version="1.0" encoding="UTF-8"?>
<svg width="374px" height="132px" viewBox="0 0 374 132" version="1.1" xmlns="http://www.w3.org/2000/svg" xmlns:xlink="http://www.w3.org/1999/xlink">
    <title>Group 2</title>
    <defs>
        <linearGradient x1="84.0810798%" y1="78.322%" x2="14.9140588%" y2="29.547%" id="linearGradient-1">
            <stop stop-color="#FFD73B" offset="0%"></stop>
            <stop stop-color="#EE8400" offset="100%"></stop>
        </linearGradient>
        <linearGradient x1="74.671%" y1="5.95033806%" x2="-39.068%" y2="370.981285%" id="linearGradient-2">
            <stop stop-color="#FFD73B" offset="0%"></stop>
            <stop stop-color="#EE8400" offset="100%"></stop>
        </linearGradient>
        <linearGradient x1="77.0643341%" y1="73.71%" x2="-1.08167606%" y2="22.1%" id="linearGradient-3">
            <stop stop-color="#FFD73B" offset="0%"></stop>
            <stop stop-color="#EE8400" offset="100%"></stop>
        </linearGradient>
        <linearGradient x1="0%" y1="49.724%" x2="95.665%" y2="49.724%" id="linearGradient-4">
            <stop stop-color="#FFD73B" offset="0%"></stop>
            <stop stop-color="#EE8400" offset="100%"></stop>
        </linearGradient>
        <linearGradient x1="21.0593598%" y1="50%" x2="245.864465%" y2="54.559%" id="linearGradient-5">
            <stop stop-color="#FFD73B" offset="0%"></stop>
            <stop stop-color="#EE8400" offset="100%"></stop>
        </linearGradient>
        <linearGradient x1="21.1984368%" y1="47.055%" x2="81.1341005%" y2="47.613%" id="linearGradient-6">
            <stop stop-color="#FFD73B" offset="0%"></stop>
            <stop stop-color="#EE8400" offset="100%"></stop>
        </linearGradient>
        <linearGradient x1="-14.9266331%" y1="49.825%" x2="90.1133297%" y2="50.188%" id="linearGradient-7">
            <stop stop-color="#FFD73B" offset="0%"></stop>
            <stop stop-color="#EE8400" offset="100%"></stop>
        </linearGradient>
        <radialGradient cx="29.6765885%" cy="28.8218493%" fx="29.6765885%" fy="28.8218493%" r="209.061668%" gradientTransform="translate(0.296766,0.288218),scale(0.654545,1.000000),rotate(14.300283),translate(-0.296766,-0.288218)" id="radialGradient-8">
            <stop stop-color="#F9F9F9" stop-opacity="0.98519" offset="0%"></stop>
            <stop stop-color="#D5D5D5" offset="100%"></stop>
        </radialGradient>
        <linearGradient x1="52.413%" y1="78.3790306%" x2="30.92%" y2="17.4932737%" id="linearGradient-9">
            <stop stop-color="#F9F9F9" stop-opacity="0.98519" offset="0%"></stop>
            <stop stop-color="#D5D5D5" offset="100%"></stop>
        </linearGradient>
        <linearGradient x1="70.405%" y1="19.934%" x2="70.405%" y2="94.505%" id="linearGradient-10">
            <stop stop-color="#F9F9F9" stop-opacity="0.98519" offset="0%"></stop>
            <stop stop-color="#D5D5D5" offset="100%"></stop>
        </linearGradient>
    </defs>
    <g id="Page-1" stroke="none" stroke-width="1" fill="none" fill-rule="evenodd">
        <g id="Group-2">
            <text id="BIE" font-family="Apple-Chancery, Apple Chancery" font-size="83" font-weight="normal" fill="#000000">
                <tspan x="0" y="93">BIE    </tspan>
            </text>
            <g id="Fathers-Day-ns" transform="translate(179.000000, 20.000000)" fill-rule="nonzero">
                <path d="M47.6722307,33.0442368 C55.8998137,24.1543041 64.6668819,27.1362522 62.7275106,41.0313019 C61.05528,53.0129349 46,61 46,61 L46,53.0129349 C46,53.0129349 55.2267582,48.8920483 56.0368533,45.0258698 C57.709084,37.036734 51.0184267,37.036734 47.6722307,41.0313019 L47.6722307,33.0442368 L47.6722307,33.0442368 Z" id="imagebot_34" fill="url(#linearGradient-1)"></path>
                <path d="M8.05164464,69.5167576 C2.97663533,68.59943 2.97663533,76.5147155 6.34802887,80.4733844 C13.0911656,84.4300011 49.3745976,85.8665321 51.8640269,80.4733844 C54.1349319,75.5522398 55.2362946,72.5580988 51.8640269,68.59943 C48.0949191,64.1749146 11.4405201,70.432033 8.05251873,69.5167576 L8.05164464,69.5167576 Z" id="imagebot_32" fill="url(#linearGradient-2)"></path>
                <path d="M6,17 C21.2007221,22.2303196 36.1739899,21.5480146 51,17 C47.3254724,37.0170187 47.5657167,51.579708 51,72.4886554 C35.0937548,79.7700001 20.4267553,77.0901035 6,72.4886554 C7.04376632,54.2431635 8.5583423,42.9522496 6,17 L6,17 Z" id="imagebot_30" fill="url(#linearGradient-3)"></path>
                <path d="M13,26.6511111 C16.4495676,24.1732603 19.112901,24.7444466 21.4317323,26.6511111 C22.4075301,40.0018282 21.9353699,52.9317781 21.4317323,65.8535972 C18.6215046,68.331448 15.8112769,69.0754131 13,65.8535972 C13.7996995,55.7917749 15.6853676,43.5346458 13,26.6511111 Z" id="imagebot_28" fill-opacity="0.89286" fill="url(#linearGradient-4)"></path>
                <path d="M7.18644444,24 C8.42347624,41.6466766 7.74531359,52.3095238 7,65 C7.37304361,64.713244 7.74593249,64.389881 8.1189761,64.0177083 C8.95124552,51.4126488 9.59304763,38.7018353 8.1189761,24.7972222 C7.81401179,24.5125 7.50641714,24.2196429 7.18644444,24 L7.18644444,24 Z" id="imagebot_26" fill-opacity="0.89286" fill="url(#linearGradient-5)"></path>
                <path d="M26.4076576,26.4823848 C28.0172941,24.5058717 31.2382369,24.5058717 34.4575099,26.4823848 C35.2907139,40.1744538 35.0619585,55.193083 34.4575099,68.001462 C31.7742258,70.6074248 29.0909417,70.7242933 26.4076576,68.001462 C25.9534863,55.3776122 25.7815024,40.4307444 26.4076576,26.4823848 Z" id="imagebot_24" fill-opacity="0.89286" fill="url(#linearGradient-6)"></path>
                <path d="M39.1894542,26.6591734 C41.8119668,25.4859677 44.2425882,23.6006771 48,26.6591734 C45.4780018,40.7151982 47.1447137,53.2103493 48,66.0095137 C45.2148368,68.0335486 42.3675374,69.2271579 39.1894542,66.0095137 C38.0234869,52.8920535 37.2321643,39.7766336 39.1894542,26.6591734 Z" id="imagebot_22" fill-opacity="0.89286" fill="url(#linearGradient-7)"></path>
                <path d="M7.70035356,35.8205497 C7.40229951,36.2379157 2.40687225,36.2379157 2.40687225,32.2739667 C2.40687225,28.3079618 0.741672271,30.2919923 0.741672271,22.3599824 C-2.59874341,13.313626 5.96331668,-0.227124863 14.0630994,0.552095387 C23.2280023,3.26065675 28.8644357,-4.51386423 40.7049177,4.5178947 C47.3653722,6.50028036 50.6964629,4.5178947 52.3611448,10.4654629 C54.0275536,16.4140591 57.3569175,28.3079618 52.3611448,22.3599824 C47.3653722,16.4140591 46.1324024,18.1020269 46.1324024,20.158017 C46.1324024,28.0879709 42.2124564,27.9111557 38.1284597,25.1355691 C34.0444631,22.3599824 27.3840085,16.4140591 25.7193266,24.3440129 C24.0529178,32.2739667 19.0588721,34.2559412 19.0588721,28.3079618 C19.0588721,22.3599824 10.7321814,14.4306454 10.7321814,22.3599824 C10.7321814,30.2919923 6.05207669,30.771038 7.6998355,35.8205497 L7.70035356,35.8205497 Z" id="imagebot_20" fill="url(#radialGradient-8)"></path>
                <path d="M6.0308417,15.1032786 C6.0308417,15.1032786 5.51704304,13.2418507 8.68365713,10.5488781 C11.8504437,7.85590545 14.298878,13.8180874 15.7585215,11.4276864 C17.2176476,9.03707452 18.1834994,2.46996019 22.0917497,6.04174117 L26,9.61331116 C26,9.61331116 14.934098,21.5155201 6.03101417,15.1032786 L6.0308417,15.1032786 Z" id="imagebot_18" fill="url(#linearGradient-9)"></path>
                <path d="M31,8.47393627 C34.3293874,4.4492212 35.3060077,7.26349565 35.8973069,8.5152013 C35.8973069,8.5152013 39.4486534,4.58519927 41.2243267,6.55020028 C43,8.5152013 43,10.4802023 43,10.4802023 C43,10.4802023 36.1601065,14.9892901 31,8.47393627 Z" id="imagebot_16" fill="url(#linearGradient-10)"></path>
                <path d="M6.32680068,80 C3.50084551,75.968 3.7324545,73.812 4.51876794,72 C5.54663455,72.948 7.7855215,73.448 10,73.958 C7.68481407,74.766 4.39781055,74.498 6.32680068,80 Z" id="imagebot_14" fill-opacity="0.70536" fill="#FFFFFF"></path>
                <path d="M53,30.1936052 C57.1437995,29.9990605 59.9476065,32.0722389 62,34 C62,34 60.4293253,26.057074 53,30.1936052 L53,30.1936052 Z" id="imagebot_12" fill-opacity="0.70536" fill="#FFFFFF"></path>
                <path d="M13,27.9344695 C14.1937256,34.6340847 14.3114949,39.6290269 14.6667821,45 C15.3393538,38.5385377 13.5551982,29.1168774 17,26 C15.6679202,26.2026388 14.3334653,26.3634964 13,27.9344695 Z" id="imagebot_10" fill-opacity="0.70536" fill="#FFFFFF"></path>
                <path d="M26,41 L26.311804,27.4795877 C27.874536,25.2155515 29.437268,26.2734739 31,26.0944092 C26.1503341,30.3569718 27.0467706,35.8935693 26,41 Z" id="imagebot_8" fill-opacity="0.70536" fill="#FFFFFF"></path>
                <path d="M39.1478223,39 L39,28.5002474 C40.6682798,26.1172687 41.683678,27.407719 43,27 C40.0576331,29.1335972 39.8288605,34.3231074 39.1478223,39 Z" id="imagebot_6" fill-opacity="0.70536" fill="#FFFFFF"></path>
                <path d="M2.02200286,20 C2.01456103,19.3350991 6.30901756,4.30874931 16.5955338,3.92745738 C23.8833376,4.00461872 31.8962875,3.07560441 37,6.17416571 C35.0339717,0.504859501 23.6289308,1.79136065 16.8880151,3.23628879 C12.7140124,-0.196775117 1.43600182,6.9018628 2.02200286,20 Z" id="imagebot_4" fill="#FFFFFF"></path>
                <path d="M7,15 C9.04970735,10.7884912 12.2964628,11.6282569 15.8577487,13.7943452 C18.7010773,5.20955095 20.909916,6.20454854 23,8.97213485 C19.5662906,6.62709017 17.8307745,10.9328834 15.8577487,14.3111712 C12.6975146,13.4151621 9.42853508,11.927472 7,15 Z" id="imagebot_2" fill="#FFFFFF"></path>
            </g>
            <text id="RO" font-family="Apple-Chancery, Apple Chancery" font-size="83" font-weight="normal" fill="#000000">
                <tspan x="251" y="93">RO</tspan>
            </text>
        </g>
    </g>
</svg>